<svg width="127" height="127" viewBox="0 0 127 127" fill="none" xmlns="http://www.w3.org/2000/svg">
<path d="M63.9167 126.833C56.5965 126.833 49.7174 125.443 43.2792 122.664C36.841 119.884 31.2406 116.114 26.4781 111.355C21.7156 106.596 17.9462 100.996 15.1698 94.5542C12.3935 88.1124 11.0035 81.2333 11 73.9167C10.9965 66.6001 12.3864 59.7209 15.1698 53.2792C17.9533 46.8374 21.7227 41.2371 26.4781 36.4781C31.2336 31.7192 36.8339 27.9497 43.2792 25.1698C49.7244 22.3899 56.6036 21 63.9167 21C71.2298 21 78.1089 22.3899 84.5542 25.1698C90.9994 27.9497 96.5998 31.7192 101.355 36.4781C106.111 41.2371 109.882 46.8374 112.669 53.2792C115.456 59.7209 116.844 66.6001 116.833 73.9167C116.823 81.2333 115.433 88.1124 112.664 94.5542C109.894 100.996 106.125 106.596 101.355 111.355C96.5857 116.114 90.9853 119.885 84.5542 122.669C78.123 125.452 71.2439 126.84 63.9167 126.833ZM63.9167 116.25C75.7347 116.25 85.7448 112.149 93.9469 103.947C102.149 95.7448 106.25 85.7347 106.25 73.9167C106.25 62.0986 102.149 52.0885 93.9469 43.8865C85.7448 35.6844 75.7347 31.5833 63.9167 31.5833C52.0986 31.5833 42.0885 35.6844 33.8865 43.8865C25.6844 52.0885 21.5833 62.0986 21.5833 73.9167C21.5833 85.7347 25.6844 95.7448 33.8865 103.947C42.0885 112.149 52.0986 116.25 63.9167 116.25ZM63.9167 105.667C55.0972 105.667 47.6007 102.58 41.4271 96.4063C35.2535 90.2326 32.1667 82.7361 32.1667 73.9167C32.1667 65.0972 35.2535 57.6007 41.4271 51.4271C47.6007 45.2535 55.0972 42.1667 63.9167 42.1667C72.7361 42.1667 80.2326 45.2535 86.4062 51.4271C92.5799 57.6007 95.6667 65.0972 95.6667 73.9167C95.6667 82.7361 92.5799 90.2326 86.4062 96.4063C80.2326 102.58 72.7361 105.667 63.9167 105.667ZM63.9167 95.0833C69.7375 95.0833 74.7205 93.0108 78.8656 88.8656C83.0108 84.7205 85.0833 79.7375 85.0833 73.9167C85.0833 68.0958 83.0108 63.1129 78.8656 58.9677C74.7205 54.8226 69.7375 52.75 63.9167 52.75C58.0958 52.75 53.1129 54.8226 48.9677 58.9677C44.8226 63.1129 42.75 68.0958 42.75 73.9167C42.75 79.7375 44.8226 84.7205 48.9677 88.8656C53.1129 93.0108 58.0958 95.0833 63.9167 95.0833ZM63.9167 84.5C61.0063 84.5 58.5156 83.4646 56.4448 81.3938C54.374 79.323 53.3369 76.8306 53.3333 73.9167C53.3298 71.0027 54.367 68.5121 56.4448 66.4448C58.5227 64.3776 61.0133 63.3404 63.9167 63.3333C66.82 63.3263 69.3124 64.3634 71.3938 66.4448C73.4752 68.5262 74.5106 71.0168 74.5 73.9167C74.4894 76.8165 73.454 79.3089 71.3938 81.3938C69.3336 83.4787 66.8412 84.5141 63.9167 84.5Z" fill="#21BE9C"/>
</svg>
