<svg width="76" height="76" viewBox="0 0 76 76" fill="none" xmlns="http://www.w3.org/2000/svg">
<path fill-rule="evenodd" clip-rule="evenodd" d="M4.41992 38.0156C4.41992 56.5687 19.4605 71.6094 38.0137 71.6094C56.5668 71.6094 71.6074 56.5687 71.6074 38.0156C71.6074 19.4625 56.5668 4.42188 38.0137 4.42188C19.4605 4.42188 4.41992 19.4625 4.41992 38.0156ZM25.4199 34.7969L36.3574 23.8594C36.7969 23.4205 37.3926 23.1739 38.0137 23.1739C38.6348 23.1739 39.2305 23.4205 39.6699 23.8594L50.6074 34.7969C50.8377 35.0114 51.0224 35.2702 51.1505 35.5577C51.2786 35.8452 51.3475 36.1555 51.353 36.4702C51.3586 36.7849 51.3007 37.0975 51.1828 37.3894C51.0649 37.6812 50.8895 37.9463 50.6669 38.1689C50.4444 38.3914 50.1793 38.5669 49.8874 38.6848C49.5956 38.8026 49.283 38.8605 48.9683 38.855C48.6536 38.8494 48.3432 38.7805 48.0557 38.6524C47.7682 38.5243 47.5095 38.3396 47.2949 38.1094L40.3574 31.1719L40.3574 50.5156C40.3574 51.1372 40.1105 51.7334 39.671 52.1729C39.2314 52.6124 38.6353 52.8594 38.0137 52.8594C37.3921 52.8594 36.7959 52.6124 36.3564 52.1729C35.9169 51.7334 35.6699 51.1372 35.6699 50.5156L35.6699 31.1719L28.7324 38.1094C28.2881 38.5234 27.7005 38.7488 27.0933 38.738C26.4861 38.7273 25.9068 38.4814 25.4774 38.0519C25.0479 37.6225 24.802 37.0432 24.7913 36.436C24.7805 35.8288 25.0059 35.2412 25.4199 34.7969Z" fill="#21BE9C"/>
</svg>
