<svg width="76" height="76" viewBox="0 0 76 76" fill="none" xmlns="http://www.w3.org/2000/svg">
<path fill-rule="evenodd" clip-rule="evenodd" d="M71.6074 38.0078C71.6074 19.4547 56.5668 4.41406 38.0137 4.41406C19.4605 4.41406 4.41992 19.4547 4.41992 38.0078C4.41992 56.5609 19.4605 71.6016 38.0137 71.6016C56.5668 71.6016 71.6074 56.5609 71.6074 38.0078ZM50.6074 41.2266L39.6699 52.1641C39.2305 52.603 38.6348 52.8495 38.0137 52.8495C37.3926 52.8495 36.7969 52.603 36.3574 52.1641L25.4199 41.2266C25.1896 41.012 25.005 40.7532 24.8769 40.4657C24.7488 40.1782 24.6799 39.8679 24.6743 39.5532C24.6688 39.2385 24.7267 38.9259 24.8445 38.6341C24.9624 38.3422 25.1379 38.0771 25.3604 37.8546C25.583 37.632 25.8481 37.4566 26.1399 37.3387C26.4318 37.2208 26.7444 37.1629 27.0591 37.1685C27.3737 37.174 27.6841 37.2429 27.9716 37.371C28.2591 37.4991 28.5179 37.6838 28.7324 37.9141L35.6699 44.8516L35.6699 25.5078C35.6699 24.8862 35.9169 24.2901 36.3564 23.8505C36.7959 23.411 37.3921 23.1641 38.0137 23.1641C38.6353 23.1641 39.2314 23.411 39.671 23.8505C40.1105 24.2901 40.3574 24.8862 40.3574 25.5078L40.3574 44.8516L47.2949 37.9141C47.7392 37.5001 48.3269 37.2747 48.9341 37.2854C49.5412 37.2961 50.1206 37.5421 50.55 37.9715C50.9794 38.4009 51.2254 38.9802 51.2361 39.5874C51.2468 40.1946 51.0214 40.7823 50.6074 41.2266Z" fill="#21BE9C"/>
</svg>
