<svg width="31" height="31" viewBox="0 0 31 31" fill="none" xmlns="http://www.w3.org/2000/svg">
<path d="M10.0757 2.58594H20.9257C25.059 2.58594 28.4173 5.94427 28.4173 10.0776V20.9276C28.4173 22.9145 27.628 24.8201 26.2231 26.225C24.8181 27.63 22.9126 28.4193 20.9257 28.4193H10.0757C5.94232 28.4193 2.58398 25.0609 2.58398 20.9276V10.0776C2.58398 8.09069 3.37328 6.18516 4.77824 4.7802C6.1832 3.37524 8.08874 2.58594 10.0757 2.58594ZM9.81732 5.16927C8.58406 5.16927 7.40132 5.65918 6.52927 6.53122C5.65723 7.40327 5.16732 8.58601 5.16732 9.81927V21.1859C5.16732 23.7564 7.2469 25.8359 9.81732 25.8359H21.184C22.4172 25.8359 23.6 25.346 24.472 24.474C25.3441 23.6019 25.834 22.4192 25.834 21.1859V9.81927C25.834 7.24885 23.7544 5.16927 21.184 5.16927H9.81732ZM22.2819 7.10677C22.7101 7.10677 23.1208 7.27688 23.4236 7.57967C23.7264 7.88246 23.8965 8.29314 23.8965 8.72135C23.8965 9.14957 23.7264 9.56024 23.4236 9.86304C23.1208 10.1658 22.7101 10.3359 22.2819 10.3359C21.8537 10.3359 21.443 10.1658 21.1402 9.86304C20.8374 9.56024 20.6673 9.14957 20.6673 8.72135C20.6673 8.29314 20.8374 7.88246 21.1402 7.57967C21.443 7.27688 21.8537 7.10677 22.2819 7.10677ZM15.5007 9.04427C17.2135 9.04427 18.8562 9.7247 20.0674 10.9359C21.2786 12.147 21.959 13.7897 21.959 15.5026C21.959 17.2155 21.2786 18.8582 20.0674 20.0693C18.8562 21.2805 17.2135 21.9609 15.5007 21.9609C13.7878 21.9609 12.1451 21.2805 10.9339 20.0693C9.72275 18.8582 9.04232 17.2155 9.04232 15.5026C9.04232 13.7897 9.72275 12.147 10.9339 10.9359C12.1451 9.7247 13.7878 9.04427 15.5007 9.04427ZM15.5007 11.6276C14.4729 11.6276 13.4873 12.0359 12.7606 12.7626C12.0339 13.4893 11.6257 14.4749 11.6257 15.5026C11.6257 16.5303 12.0339 17.5159 12.7606 18.2426C13.4873 18.9693 14.4729 19.3776 15.5007 19.3776C16.5284 19.3776 17.514 18.9693 18.2407 18.2426C18.9674 17.5159 19.3757 16.5303 19.3757 15.5026C19.3757 14.4749 18.9674 13.4893 18.2407 12.7626C17.514 12.0359 16.5284 11.6276 15.5007 11.6276Z" fill="#21BE9C"/>
</svg>
